<svg width="200" height="200" viewBox="0 0 200 200" xmlns="http://www.w3.org/2000/svg">
  <circle cx="100" cy="100" r="90" fill="#e8622a"/>
  <ellipse cx="100" cy="112" rx="32" ry="28" fill="#f5c4a0"/>
  <polygon points="72,58 56,28 92,48" fill="#e8622a"/>
  <polygon points="72,58 60,34 86,50" fill="#f0a070"/>
  <polygon points="128,58 144,28 108,48" fill="#e8622a"/>
  <polygon points="128,58 140,34 114,50" fill="#f0a070"/>
  <ellipse cx="84" cy="92" rx="7" ry="8" fill="#1a1a1a"/>
  <ellipse cx="116" cy="92" rx="7" ry="8" fill="#1a1a1a"/>
  <circle cx="86" cy="90" r="2.5" fill="white"/>
  <circle cx="118" cy="90" r="2.5" fill="white"/>
  <ellipse cx="100" cy="108" rx="5" ry="4" fill="#1a1a1a"/>
  <path d="M94,112 Q100,117 106,112" fill="none" stroke="#1a1a1a" stroke-width="1.5" stroke-linecap="round"/>
  <ellipse cx="74" cy="106" rx="10" ry="6" fill="#d44a10" opacity="0.4"/>
  <ellipse cx="126" cy="106" rx="10" ry="6" fill="#d44a10" opacity="0.4"/>
</svg>
