<svg width="200" height="200" viewBox="0 0 200 200" xmlns="http://www.w3.org/2000/svg">
  <circle cx="100" cy="100" r="90" fill="#6b7a8d"/>
  <ellipse cx="100" cy="114" rx="28" ry="24" fill="#c8cdd4"/>
  <polygon points="78,56 60,24 96,46" fill="#6b7a8d"/>
  <polygon points="78,56 64,32 92,48" fill="#9aa4b0"/>
  <polygon points="122,56 140,24 104,46" fill="#6b7a8d"/>
  <polygon points="122,56 136,32 108,48" fill="#9aa4b0"/>
  <ellipse cx="84" cy="93" rx="7" ry="7.5" fill="#1a1a1a"/>
  <ellipse cx="116" cy="93" rx="7" ry="7.5" fill="#1a1a1a"/>
  <ellipse cx="84" cy="93" rx="4" ry="5" fill="#4a9e6a"/>
  <ellipse cx="116" cy="93" rx="4" ry="5" fill="#4a9e6a"/>
  <circle cx="84" cy="93" r="2.5" fill="#1a1a1a"/>
  <circle cx="116" cy="93" r="2.5" fill="#1a1a1a"/>
  <circle cx="86" cy="91" r="1.5" fill="white"/>
  <circle cx="118" cy="91" r="1.5" fill="white"/>
  <ellipse cx="100" cy="109" rx="14" ry="11" fill="#c8cdd4"/>
  <ellipse cx="100" cy="105" rx="5.5" ry="4" fill="#1a1a1a"/>
  <path d="M93,113 Q100,118 107,113" fill="none" stroke="#1a1a1a" stroke-width="1.5" stroke-linecap="round"/>
</svg>
